<?xml version="1.0" encoding="UTF-8"?>
<svg id="Layer_2" data-name="Layer 2" xmlns="http://www.w3.org/2000/svg" viewBox="0 0 159.21 109.64">
  <defs>
    <style>
      .cls-1 {
        fill: #fff;
      }
    </style>
  </defs>
  <g id="Layer_1-2" data-name="Layer 1">
    <path class="cls-1" d="M92.11,19.62v10.99h6c-.17-1.83.25-3.94-.03-5.72-.15-.96-.98-1.5-1.04-3.04-.04-.98,1.15-2.63,2.05-1.9,1.98,1.63,5.23.03,7.66.66.53.14.49,1.21,1.16,1.44,1.22.43,2.4-.39,2.98-.3.52.08.48,1.23,1.05,1.38.83.22,3.92-.25,4.15-.02.73,2.96-1.45,3.35-2.36,5.89-.27.74.05,1.71-.16,2.24-.13.33-1.97,2.66-1.97,3.11v8.74l5.78-.46c.46-.7.04-1.9.23-2.69.05-.23,1.93-3.45,1.98-3.68.41-1.89.56-4.47.99-6.31.12-.53,1.28-.5,1.48-1.16.23-.76-.39-1.55-.33-1.98.03-.22,2.45-1.41,1.36-3.71,2.13.24,4.74-.3,6.78-.04.34.04,4.12,1.83,4.6,2.02.43.17,1.11-.05,1.61.02l.47,6.77,5.53.22c.22-.22-.79-7.62,1.83-3.33.3.49.05,1.28.32,1.67,1.22,1.72,1.3.8,2.51,3.5.1.22,1.27.07.83,1.81-.09.34-2.21,1.67-2.36,1.98-.67,1.32.96,2.18-2.1,1.89-.71,2.77-1.4,5.01-1.03,7.97,3.87.29,6.39.31,8.24-3.5,1.07,1.61,2.15,1.49,1.79,3.77-.15.95-.94.67-1.03,1.07-.23,1.01.18,2.12-.06,3.13l-1.45.03c1.14,3.16-.12,2.48-.86,3.63-.3.46-.09,1.34-.41,1.82-1.9,2.84-1.76,1.86-4.1,2.69-.22.08-1.4,2.1-1.95,2.27-1.22.38-2.22-.33-2.95-.23-.53.07-.92,1.1-1.98,1.3-3.9.74-7.46.43-11.52.96-.92.12-.65.93-1.06,1.03-1.39.33-5.51.71-7.43.99-2.73.39-6.46-.46-8.98.01-1.24.23-1.03,1.38-1.58,1.52-.93.24-10.13.06-10.65-.28-.35-.23-.33-1.11-.84-1.24-2.26-.59-7.21.68-8.94.37-.51-.09-.52-1.07-.8-1.25-.88-.55-18.66-.42-20.65-.15-1.17.15-.86,1.3-1.44,1.4-2.94.52-9.1-.98-12.01-1.39-6.42-.9-15.05.88-21.54.07-.96-.12-.48-.96-1.43-1.08-3.98-.5-9.3.96-11.98-2.32-2.36,1.23-2.91-1.53-5.26-1.16l-.03-4.47c-1.74.42-2.41-.86-3.49-2,.7.03,1.35.07,2-.28.9-.47,5.16-5.5,6.39-6.7.81-.78,3.94-4.27,4.23-4.37,2.27-.81,3.37-1.46,5.38-2.45.43-.21,3.35-3.95,3.61-4.04.8-.29,1.71.05,2.27-.25.2-.1,1.95-3.09,2.85-3.39l.44,5.75.62.67,6.18.07c-.3-2.17,2.89-5.15,5.15-4.5,1.76,2.84,4.85,3.01,3.85,7h4.5v-9.49l-3-3h-11.49c-.4-1.8,1.98-.73,3.15-1.01,1.51-.36,5.67-3.15,7.17-3.48,2.5-.54,6.1-.5,8.31-1.02.14-.03,1.33-2.23,2.34-.63.68,1.07,1.57,2.88,1.52,4.11l6.15-.04c1.62-.53.43-3.93.78-5.12.14-.48,1.05-.27,1.48-.61s.47-1.09.9-1.21c3.06-.83,10.23.53,13.92.05.92-.12.66-.93,1.06-1.03,1.31-.31,3.23.18,4.65-.01ZM81.12,45.59v-11.49s-.62.08-.81-.17c-1.72-2.24-1.15-1.37-3.29-2.38-.46-.22-.43-.85-.75-.93-1.14-.27-10.55-.25-11.77,0-.39.08-1.08,1.5-1.53,1.8s-1.33.11-1.8.48c-2.37,1.89-3.6,3.78-3.08,6.96.47,2.88,5.52,2.35,7.71,2.16l.75-.75c-.57-2.18,2.03-5.26,4.22-4.66.38.1.29.87.7.97,1.26.32,2.78-.14,4.03,1.12l.14,6.36,5.47.52ZM95.99,39.49c.37-.6.28-3.74-.35-4.17-1.4-.2-6.48-.84-6.96.6.23,2.78-.57,6.85-.08,9.44.23,1.24,1.38,1.03,1.52,1.58.41,1.63-.39,4.51,0,6.28.03.14,1.65,2.25,1.79,2.3.82.3,3.79.17,4.68-.2,1.9-.79,1.21-2.59,1.53-3.88.1-.4.88-.32.97-.69.37-1.53-.24-3.97.01-5.65h-3.5c1.08-1.57-.59-1.84-.91-2.85-.78-2.43.98-2.23,1.29-2.75ZM120.59,49.58c-.2.29,0,5.89,0,6.99h5.5c-.9-3.26,1.2-3.06,2.34-4.66.26-.37,1.13-3.5,1.38-3.85.6-.84,2.19-.13,2.3-.77l-.25-6.24c-.47-.68-3.64-.63-4.52-.45-.35.07-4.5,3.33-4.65,3.58-.29.5-.36,4.08-1.24,5.27-.19.26-.84.08-.87.12ZM31.66,44.09h-6.99l.49,5.77,5.78.09c1.31-.23.53-4.68.73-5.87ZM54.14,56.57v-7.24c-.78-1-4.06-1.04-5.13-.75-.11.03-1.68,1.51-1.73,1.62-.62,1.28.17,4.75-.13,6.37h6.99Z"/>
    <path class="cls-1" d="M52.39,71.06c.14.03.98.74.51,1.01-2.47.73-.76,4.49-1.27,6.64-.1.4-.91.13-1.03,1.06-.26,2.01.47,5.1.03,6.93-.09.38-.89.31-.98.68-.19.83.23,2.81-.07,3.12l-1.45.03v1.75c-.54.31-.92-.65-1.76-.74-1.56-.16-3.17.07-4.73-.01.17-1.51-.22-3.33-.04-4.78.12-.92.93-.65,1.03-1.06.33-1.38-.38-3.58.08-4.84.25-.69,1.22-.7,1.33-.88.12-.21-.53-.92-.19-1.43.29-.44,1.29-.42,1.29-.49v-6.99c2.05.33,5.42-.46,7.24,0Z"/>
    <path class="cls-1" d="M108.1,89.03c1.86-1.73.51-4.28.99-6.14.14-.55,1.29-.35,1.53-1.58.25-1.32-.48-2.98-.38-3.56.09-.53,1.22-.48,1.38-1.05.29-1.08-.22-2.92-.02-4.15.28-.28,5.08.28,6.15.01.18-.04,1.97-3.21,2.77-.68.24.77.24,4.51.12,5.45s-.93.64-1.03,1.06c-.59,2.64-1.44,3.17-1.52,3.5-.24.94.18,2.38.05,3.44-.07.61-1.94,1.69-1.04,3.71h-8.99Z"/>
    <path class="cls-1" d="M134.08,70.06c-.15,1.36.21,2.97.02,4.27-.16,1.11-.88,1.71-1,2.49-.36,2.32-.39,6.33-1.1,8.41-.23.67-1.3.63-1.44,1.15-.22.84.25,3.92.01,4.15h-6.5c.17-1.28-.27-2.98.01-4.15.36-1.51,1.65-5.08,1.96-7.11.22-1.42-.07-3,0-4.45l1.48-.3.05-3.47c2.79.57,3.52-1.74,6.5-1Z"/>
    <path class="cls-1" d="M64.25,74.65c-.59.94.24,5.03-.13,6.55-.09.38-.89.31-.98.69-.27,1.15.25,2.66-.02,3.81-.06.23-1.67.74-.99,2.34h-5.99c.3-1.74-.41-4.6,0-6.14.14-.52,1.21-.48,1.44-1.15.92-2.68.36-4.56,2.02-7.58.2-.37,0-1.2.28-1.61.59-.88,4.16-.57,5.31-.26.24.14.33,2.31.28,2.54-.15.6-1.02.54-1.2.82Z"/>
    <path class="cls-1" d="M126.98,96.14c.39.24.52,1.92,2.27,1.39,1.39.3-2.27,3.9-2.52,3.96-3.38.79-3.46-2.54-6.13-3.48.73-1.96,5-2.74,6.38-1.87Z"/>
    <path class="cls-1" d="M60.51,95.17c.15.06,2.21,2.22,2.3,2.36,1.23,1.74-3.35,4.96-5.17,3.99-.24-.23.23-4.21.01-5.17-.12-.52-1.53-.02-1.01-1.32,1.2.15,2.74-.32,3.86.14Z"/>
    <path class="cls-1" d="M42.51,97.69c.14.07.51,1.46,2.27.85l2.35,1.97c-2.36.72-1.31,2.89-4.3,1.54-.19-.09-2-1.53-2.04-1.65-.39-1.12.45-2.62-1.14-2.38-.07-.92,2.35-.56,2.86-.33Z"/>
    <path class="cls-1" d="M111.58,95.04c2.47,3.09-.24,4.49-3.48,3.98l.22-2.52,3.27-1.46Z"/>
    <path d="M81.12,45.59l-5.47-.52-.14-6.36c-1.25-1.26-2.77-.81-4.03-1.12-.41-.1-.32-.86-.7-.97-2.19-.6-4.79,2.48-4.22,4.66l-.75.75c-2.19.19-7.25.72-7.71-2.16-.52-3.19.71-5.07,3.08-6.96.46-.37,1.35-.18,1.8-.48s1.14-1.72,1.53-1.8c1.23-.25,10.64-.27,11.77,0,.33.08.3.71.75.93,2.13,1.01,1.57.14,3.29,2.38.19.25.81.13.81.17v11.49Z"/>
    <path d="M95.99,39.49c-.32.52-2.08.31-1.29,2.75.32,1,1.99,1.28.91,2.84h3.5c-.25,1.68.36,4.12-.01,5.65-.09.37-.87.29-.97.69-.32,1.3.37,3.09-1.53,3.88-.89.37-3.86.5-4.68.2-.14-.05-1.75-2.15-1.79-2.3-.4-1.78.41-4.65,0-6.28-.14-.55-1.29-.34-1.52-1.58-.49-2.58.32-6.66.08-9.44.47-1.44,5.55-.8,6.96-.6.63.44.72,3.57.35,4.17Z"/>
    <path d="M120.59,49.58s.67.14.87-.12c.88-1.2.95-4.77,1.24-5.27.14-.26,4.3-3.52,4.65-3.58.88-.17,4.05-.22,4.52.45l.25,6.24c-.11.63-1.7-.07-2.3.77-.25.35-1.11,3.48-1.38,3.85-1.14,1.6-3.24,1.39-2.34,4.66h-5.5c0-1.1-.2-6.7,0-6.99Z"/>
    <path d="M54.14,56.57h-6.99c.3-1.62-.49-5.09.13-6.37.05-.11,1.61-1.59,1.73-1.62,1.08-.29,4.35-.25,5.13.75v7.24Z"/>
    <path d="M31.66,44.09c-.19,1.19.58,5.64-.73,5.87l-5.78-.09-.49-5.77h6.99Z"/>
    <path d="M36.15,82.55c-.19,1.23.3,3.05.01,4.14-.14.54-1.28.51-1.48,1.16-.23.76.39,1.55.33,1.98-.08.53-1.22.48-1.38,1.06-.16.6-.18,11.29-.02,11.86l1.53.28c-1.89,3.15,2.97,6.16,5.72,6.51,1.29.17,4.19.13,5.5-.05,2.79-.38,5.12-2.72,8.42-1.96.4.09.13.91,1.06,1.03,1.08.14,6.04.17,6.93-.05.34-.08.34-.75.51-.82.59-.24,1.32-.06,1.69-.31.2-.14,3.41-3.25,3.49-3.48.34-.87.36-9.31.19-10.64-.12-.94-.93-.66-1.04-1.04-.49-1.83.9-1.63.99-2.02.3-1.28-.2-3.09-.03-4.44.12-.92.93-.65,1.03-1.06.33-1.39-.37-3.53.09-4.84.24-.68,1.3-.64,1.43-1.16.32-1.23-.34-7.32-.01-7.64,4.28.45,9.64-.58,13.77-.03,1.64.22,1.82,1.29,2.98,1.52,2.02.39,4.92-.3,7.02-.03.96.12.48.96,1.43,1.08,1.32.17,7.99-.33,8.28-.04-.17,1.28.26,2.97-.01,4.15-.23,1-1.91,5.64-2.03,6.55-.31,2.39.29,5.5.07,7.99l-2.46,1.1c.08,1.99-.36,4.55-.11,6.45.14,1.07,1,.77,1.26,1.25.33.6.18,1.41.46,1.82.31.45,4.71,4.64,5.05,4.69l5.41-.03,3.6-3.52c.3,1.49,1.5.75,2.09,1.16.5.35,1.6,2.23,2.02,2.35.97.26,10.86.1,11.62-.28.22-.11,3.44-3.33,3.49-3.58.2-1.02-.15-2.09.07-3.11l1.48-.3c.21-2.49-.39-5.61-.07-8,.12-.92.94-.66,1.03-1.06.69-3.02.56-6.75,1.04-9.87.2-1.33,1.55-3.28,1.19-5.3l3.28-7.71c1.12-.69,3.02.08,4.15-.23.52-.14.5-1.02.82-1.23.34-.21.98.22,1.5-.05,1.07-.56,5.51-6.15,5.97-7.15,1.13-2.49.52-3.67,1.04-5.72.14-.55,1.29-.34,1.52-1.58.19-1.02.21-10.09,0-10.9-.14-.52-1.2-.46-1.43-1.16-.38-1.15.23-2.54-1.08-3.67,3.36-1.62,4.09-3.89,3.42-7.68l-.75-.75-3.94-.08-2.23,1.5c.76-2.63-.99-2.46-1.82-3.66-.33-.48-.18-1.41-.64-2.12-.49-.75-2.38-1.67-3.03-2.56-.43-1.75.68-1.55.8-1.81.57-1.2,1.65-2.52,1.7-2.68.24-.91.12-7.01-.48-7.42l-5.53-.22c.2,2.33-1.03,5.08-2.12,7.15-.54,1.02-2.12.88-1.38,3.35-2.69,1.42-4.1-2.32-4.86-2.49-1.43-.31-3.41.3-4.79-.03-.41-.1-.14-.91-1.06-1.03-4.18-.55-9.48,1.32-12.04,1.09-.91-.08-.67-.95-1.07-1.04-1.62-.37-3.28-.71-4.5-1-1.75-.42-4.58.35-6.42,0-1.24-.23-1.03-1.38-1.58-1.52-.85-.21-3.92.24-4.15.01.13-1.15-.23-2.58.02-3.65.07-.31.68-.29.93-.75.61-1.08-.44-2.45,2.53-2.12.32-4.67.42-7.78-5.26-7-3.66.5-2.1,3.19-2.83,4.42-.16.28-1.16.29-1.25.8-.1.59.71,2.21.38,3.44-.14.52-1.2.48-1.44,1.15-.36,1.03.06,2.57-.07,3.69-.28.28-6.5-.25-7.76-.01-1.24.23-1.03,1.38-1.58,1.52-4.53,1.15-12.21-1.54-16.87.99-1.17-.3-.68-3.82-.91-5.1-.23-1.28-1.79-3.06-1.84-3.25-.34-1.44.19-3.58-.02-5.14h-6.99c-.04,3.33-.46,5.51,1.32,8.44.24.39,1.06.45,1.18.9.28,1.07-.27,2.69-.01,3.82.12.52,1.53.02,1.01,1.32-1.28.18-2.96-.26-4.15.01-.4.09-.14.91-1.06,1.03-1.08.14-2.38-.16-3.51-.07l-.54,1.57c-.92.06-2.01-.23-2.89-.02-1.5.35-5.92,2.7-7.17,2.98-.9.2-2.01-.21-2.82-.01-.56.14-.52,1.3-1.05,1.38-.43.06-1.21-.56-1.97-.33-.59.18-.62,1.11-.95,1.32-1.41.91-3.07,2.04-4.52,2.97-1.11.71-2.7-.42-2.38,2.63-2.28-.61-3.2,2.43-4.61,3.38-.55.37-3.31,1.06-4.12,1.61-1.27.87-3.92,4.92-4.86,5.39-.62.31-1.7-.01-1.85.14-.12.12.19,2.38-1.4,2.95-.55.2-1.44-.18-2.01.13-.44.24-1.75,4.05-2.2,4.29-.64.34-1.66-.15-2.3.2-.81.44-1.92,3.34-2.29,4.22-.07.16-.71.19-.79.52-.54,2.26-.07,9.67,2.16,10.94.7.4,1.72.46,2.71,1.01,4.54,2.55,5.44,2.64,10.27,3.69.36.08.3.89.68.98,2.17.52,6.27-.54,8.3,0,1.1.29-.76.97,3.07.99,2.25.01,8.32-.41,9.95.09.36.11.56.43.81.68-.81.27-1.88,2.53-2.09,2.64l.1,8.1ZM42.84,102.05c-.19-.09-2-1.53-2.04-1.65-.39-1.12.45-2.62-1.14-2.38-.07-.92,2.35-.56,2.86-.33.14.07.51,1.46,2.27.85l2.35,1.97c-2.36.72-1.31,2.89-4.3,1.54ZM52.9,72.06c-2.47.73-.76,4.49-1.27,6.64-.1.4-.91.13-1.03,1.06-.26,2.01.47,5.1.03,6.93-.09.38-.89.31-.98.68-.19.83.23,2.81-.07,3.12l-1.45.03v1.75c-.54.31-.92-.65-1.76-.74-1.56-.16-3.17.07-4.73-.01.17-1.51-.22-3.33-.04-4.78.12-.92.93-.65,1.03-1.06.33-1.38-.38-3.58.08-4.84.25-.69,1.22-.7,1.33-.88.12-.21-.53-.92-.19-1.43.29-.44,1.29-.42,1.29-.49v-6.99c2.05.33,5.42-.46,7.24,0,.14.03.98.74.51,1.01ZM57.64,101.52c-.24-.23.23-4.21.01-5.17-.12-.52-1.53-.02-1.01-1.32,1.2.15,2.74-.32,3.86.14.15.06,2.21,2.22,2.3,2.36,1.23,1.74-3.35,4.96-5.17,3.99ZM65.45,73.83c-.15.6-1.02.54-1.2.82-.59.94.24,5.03-.13,6.55-.09.38-.89.31-.98.69-.27,1.15.25,2.66-.02,3.81-.05.23-1.67.74-.99,2.34h-5.99c.3-1.74-.41-4.6,0-6.14.14-.52,1.21-.48,1.44-1.15.92-2.68.36-4.56,2.02-7.58.2-.37,0-1.2.28-1.61.59-.88,4.16-.57,5.31-.26.24.14.33,2.31.28,2.54ZM108.1,99.02l.22-2.52,3.27-1.46c2.47,3.09-.24,4.49-3.48,3.98ZM119.6,78.39c-.59,2.64-1.44,3.17-1.52,3.5-.24.94.18,2.38.05,3.44-.07.61-1.94,1.7-1.04,3.71h-8.99c1.86-1.73.51-4.28.99-6.14.14-.55,1.29-.35,1.53-1.58.25-1.32-.48-2.98-.38-3.56.09-.53,1.22-.48,1.38-1.05.29-1.08-.22-2.92-.02-4.15.28-.28,5.08.28,6.15.01.18-.04,1.97-3.21,2.77-.68.24.77.24,4.51.12,5.45-.12.93-.93.64-1.03,1.06ZM126.72,101.5c-3.38.79-3.46-2.54-6.13-3.48.73-1.96,5-2.74,6.38-1.87.39.24.52,1.92,2.27,1.39,1.39.3-2.27,3.9-2.52,3.96ZM134.1,74.33c-.16,1.11-.88,1.71-1,2.49-.36,2.32-.39,6.33-1.1,8.41-.23.67-1.3.63-1.44,1.15-.22.84.25,3.92.01,4.15h-6.5c.17-1.28-.27-2.98.01-4.15.36-1.51,1.65-5.08,1.96-7.11.22-1.42-.07-3,0-4.45l1.48-.3.05-3.47c2.79.57,3.52-1.74,6.5-1-.15,1.36.21,2.97.02,4.27ZM142.25,62.49c-1.22.38-2.22-.33-2.95-.23-.53.07-.92,1.1-1.98,1.3-3.9.74-7.46.43-11.52.96-.92.12-.65.93-1.06,1.03-1.39.33-5.51.71-7.43.99-2.73.39-6.46-.46-8.98.01-1.24.23-1.03,1.38-1.58,1.52-.93.24-10.13.06-10.65-.28-.35-.22-.33-1.11-.84-1.24-2.26-.59-7.21.68-8.94.37-.51-.09-.52-1.07-.8-1.25-.88-.55-18.66-.42-20.65-.15-1.17.15-.86,1.3-1.44,1.4-2.94.52-9.1-.98-12.01-1.39-6.42-.9-15.05.88-21.54.07-.96-.12-.48-.96-1.43-1.08-3.98-.5-9.3.96-11.98-2.32-2.36,1.23-2.91-1.53-5.26-1.16l-.03-4.47c-1.74.42-2.41-.86-3.49-2,.7.03,1.35.07,2-.28.9-.47,5.16-5.5,6.39-6.7.81-.78,3.94-4.27,4.23-4.37,2.27-.81,3.37-1.46,5.38-2.45.43-.21,3.35-3.95,3.61-4.04.8-.29,1.71.05,2.27-.25.2-.1,1.95-3.09,2.85-3.39l.44,5.75.62.67,6.18.07c-.3-2.17,2.89-5.15,5.15-4.5,1.76,2.84,4.85,3.01,3.85,7h4.5v-9.49l-3-3h-11.49c-.4-1.8,1.98-.73,3.15-1.01,1.51-.36,5.67-3.15,7.17-3.48,2.5-.54,6.1-.5,8.31-1.02.14-.03,1.33-2.23,2.34-.63.68,1.07,1.57,2.88,1.52,4.11l6.15-.04c1.62-.53.43-3.93.78-5.12.14-.48,1.05-.27,1.48-.61.42-.32.47-1.09.9-1.21,3.06-.83,10.23.53,13.92.05.92-.12.66-.93,1.06-1.03,1.31-.31,3.23.18,4.65-.01v10.99h6c-.17-1.83.25-3.94-.03-5.72-.15-.96-.98-1.5-1.04-3.04-.04-.98,1.15-2.63,2.05-1.9,1.98,1.63,5.23.03,7.66.66.53.14.49,1.21,1.16,1.44,1.22.43,2.4-.39,2.98-.3.52.08.48,1.23,1.05,1.38.83.22,3.92-.25,4.15-.02.73,2.96-1.45,3.35-2.36,5.89-.27.74.05,1.71-.16,2.24-.13.33-1.97,2.66-1.97,3.11v8.74l5.78-.46c.46-.7.04-1.9.23-2.69.05-.23,1.93-3.45,1.98-3.68.41-1.89.56-4.47.99-6.31.12-.53,1.28-.5,1.48-1.16.23-.76-.39-1.55-.33-1.98.03-.22,2.45-1.41,1.36-3.71,2.13.24,4.74-.3,6.78-.04.34.04,4.12,1.83,4.6,2.02.43.17,1.11-.05,1.61.02l.47,6.77,5.53.22c.22-.22-.79-7.62,1.83-3.33.3.49.05,1.28.32,1.67,1.22,1.72,1.3.8,2.51,3.5.1.22,1.27.07.83,1.81-.09.34-2.21,1.67-2.36,1.98-.67,1.32.96,2.18-2.1,1.89-.71,2.77-1.4,5.01-1.03,7.97,3.87.29,6.39.31,8.24-3.5,1.07,1.61,2.15,1.49,1.79,3.77-.15.95-.94.67-1.03,1.07-.23,1.01.18,2.12-.06,3.13l-1.45.03c1.14,3.16-.12,2.48-.86,3.63-.3.46-.09,1.34-.41,1.82-1.9,2.84-1.76,1.86-4.1,2.69-.22.08-1.4,2.1-1.95,2.27Z"/>
  </g>
</svg>