<?xml version="1.0" encoding="UTF-8"?>
<svg id="Layer_2" data-name="Layer 2" xmlns="http://www.w3.org/2000/svg" viewBox="0 0 252.05 336.21">
  <defs>
    <style>
      .cls-1 {
        fill: #fff;
      }
    </style>
  </defs>
  <g id="Layer_1-2" data-name="Layer 1">
    <path class="cls-1" d="M184,203.75c-.56.56-13.44-.45-15.75-.01-1.24.23-1.03,1.38-1.58,1.52-.96.24-4.89-.27-5.15-.01.2,1.65-.42,4.03.26,5.49.3.64,1.4,1.01,1.65,1.85.31,1.08-.15,2.38.17,3.34.22.67,1.3.63,1.44,1.15.27,1.06-.27,2.65,0,3.8s2.24,5.93,2.93,7.24c2.06,3.92,3.43,7.77,6.23,11.92,1.45,2.14,1.92,2.84,2.97,4.82.68,1.27,3.67,6.08,4.96,6.7.84.4,1.97.03,2.88.13l-.05,41.72c.08,1.13,1.31.66,1.55,1.96s.2,15.08-.08,15.93c-1.12,1.62-3.8.49-5.56.84-.41.08-1.66,2.25-2.07,2.31s-1.31-.37-2.01-.36c-6.71.12-16.33-.85-22.54,0-1.64.22-1.82,1.29-2.98,1.52-2.16.42-5.27-.33-7.51-.02-7.25,1.02-19.13,1.99-26.49,1.06-.96-.12-.48-.96-1.43-1.08-12.12-1.53-27.87,1.58-40.02.08-1.12-.14-.79-1.21-1.54-1.47-1.73-.59-4.47.46-5.48.29-.53-.09-.48-1.22-1.06-1.37-1.26-.34-3.43.34-4.8,0-.37-.09-.28-.87-.7-.98-.62-.16-1.45.19-2.04-.12-.15-.08-1.98-2.47-1.98-2.63s.83-.98.91-1.98c.23-2.66-.2-5.69-.05-8.4-.08-.37-5.21-4.64-5.33-4.98-.29-.8.05-1.71-.25-2.27-.13-.23-4.07-2.74-4.24-3.22-.26-.75,0-1.42-.16-2.01-.12-.46-.9-.16-1.02-1.08s-.14-4.62.05-5.43c1.3-5.51.29-8.86.95-14.11.12-.96.96-.48,1.08-1.43.29-2.29-.52-5.85-.03-7.93.09-.4.91-.13,1.03-1.06.25-1.95-.49-5.25-.05-6.93.14-.52,1.2-.48,1.44-1.16.58-1.67-.35-5.01.09-6.84.06-.27,1.98-4.2,2.03-4.55.47-3.62-.54-8.42-.08-12.05.12-.96.96-.48,1.08-1.43.24-1.9-.25-4.3-.04-6.28l-5.48.02c.67,1.87-1.41,2.38-1.53,2.83-.81,3.04.78,9.57,0,12.79-.06.26-1.73,3.45-1.96,4.61-.2,1.02.06,2.18-.03,3.22-1.35.4-2.2-.75-3.27-.98-2.29-.49-5.16-.57-7.37-1.03-.35-.07-1.56-2.04-2.01-2.34s-1.3-.01-1.69-.3c-.97-.73-3.55-4.04-3.79-4.2-1.77-1.17-4.21-1.39-5.7-4.02-.86-1.51-.08-2.96-2.09-2.64.06-.98-.76-3.59-1.22-4.3-.27-.42-1.74-1.13-1.82-1.52-.5-2.63-.97-3.77-1.53-6.29-.09-.42-.91-.13-1.03-1.06-.39-2.93-.38-13.11,0-16.05.12-.92.94-.66,1.03-1.06.27-1.16-.27-2.75,0-3.81.14-.52,1.19-.45,1.43-1.16.9-2.71,1.15-5.39,2.25-8.01.1-.24,1.49-.75.88-2.64l1.4-.05c-.59-1.91.75-2.34.88-2.64.43-.97,2.07-5.98,2.29-6.24.17-.19.95.02,1.41-.42.78-.75.72-2.29,1.16-3,2.79-4.45,8.16-10.69,12.46-14.5.33-.29,1.34,0,1.69-.31,4.58-3.93,4.49-5.16,10.27-7.85,7.05-3.28,11.01-6.27,18.95-9.03.47-.16.26-.84,1.14-.98,1.45-.23,3.53,1.06,4.31,2.25.43.67.28,1.39.51,1.88.22.46.85.43.93.75.39,1.64-.35,4.17.03,5.8.1.4.91.13,1.03,1.06.25,1.95-.49,5.25-.05,6.93.14.52,1.21.48,1.44,1.15.47,1.39.72,5.19,1.08,6.85.08.37.89.3.98.68.84,3.57.18,5.77,2.18,9.14,1.44,2.42,2.1,7.34,3.47,9.35.2.29,2.97,2.27,3.22,2.77.29.6-.02,1.64.17,1.82.12.12,1.27-.02,1.94.32,1.39.7,5.6,6.66,7.19,7.52,1.07.58,3.08.81,4.17,1.34.18.09,2.79,2.27,3,2.32,3.16.74,6.06.56,9.5,2.16.33.15,2.74,2.22,2.95,2.29,2.63.87,5.54.53,7.84,1.07.41.1.13.91,1.06,1.03,1.68.22,4.49-.44,5.93-.05,1.1.29-.76.97,3.07.99,5.21.03,10.44.16,15.63-.14l2.12-3.19v-9.78c-1.5-.65-1.96-3.93-2.42-4.61s-1.84-1.11-1.96-1.33c-.29-.55.03-1.46-.25-2.27-.25-.72-9.72-8.7-11.05-10.65-.42-.61-1.13-3.33-1.44-3.8-.49-.75-3.14-2.56-3.24-2.75-.3-.55.01-1.68-.24-2.51-.75-2.54-1.89-1.46-2.72-2.02-.22-.15-.32-.7-.76-1.02s-1.65-.71-1.78-.93c-.4-.7.1-2.12-.11-3.05-.04-.18-1.93-2.52-1.97-2.69-.28-1.15.28-2.76,0-3.8-.15-.57-1.28-.52-1.38-1.05-.14-.82.84-2.9.28-4.48-.24-.68-1.3-.63-1.43-1.16-.49-1.89.34-5.72.05-7.92-.12-.92-.93-.66-1.03-1.06-.25-1.07.12-2.51,0-3.66,1.78-.66,1.86.93,2.71,1.04,4.3.55,6.72-.12,11.54.94,3.67.81,6.39.82,9.82,2.55,6.25,3.16,12.69,5.75,19.24,9.1.26.14.64,1.24,1.66,1.57s2.18.09,2.87.41c.18.08,1.61,2.17,1.75,2.23.99.39,2.27-.26,3.1.62.13.14,1.13,3.17,1.33,3.61,1.02,2.32.93,4.9,2.07,6.76.16.27.89.31,1.09.66.47.82-.12,2.19,1.27,1.98-.14,1.31-1.75.51-2.02.72-.58.43-.29,1.54-.64,2.11-.26.43-1.72,1.12-1.8,1.52-.43,2.11-.37,14.02-.06,16.4.12.92.91.63,1.02,1.07.23.93.53,4.34,1.13,5.05.11.13,1.52,1.22,2.41,2.2,1.26,1.38,2.67,1.5,1.98,4.06-.15.54-1,.27-1,.33v9.99Z"/>
    <path class="cls-1" d="M93.93,52.1c2.21.82,1.83,1.58,5.28,2.35,1.66.37,9.38,7.46,10.31,9.38.18.38-.14,1.26.11,1.53l1.37.08c.27.28-.09,1.48.07,2.12.18.73,2.87,5.74,2.97,6.19.38,1.63-.38,4.28,0,5.79.14.53,1.2.49,1.44,1.16.39,1.12-.18,2.7.08,3.85.09.38.9.31.98.68,3.03,13.89,0,30.34,2.03,44.83.28,1.98-.47,5.21-.04,6.92.14.55,1.29.34,1.52,1.58.33,1.73-.28,4.11.01,5.98.53,3.4,1.73,11.26,3.12,14.11.14.29,1.08.34,1.27.95.25.76-.07,1.65.22,2.56.06.17,1.75,1.09,1.83,1.49.18.9-.18,3.91.04,4.11.15.14,1.14-.09,1.63.11.72.3.68,1.1.98,1.28.46.29,1.29-.02,1.71.27,1.22.85,1.75,2.64,2.49,3.74,3.74,5.55,10.68,10.21,13.82,15.7.8,1.39,1.37,3.76,1.95,4.76.29.49,1.82.31,1.36,1.85-.04.12-1.7,1.73-1.83,1.76-1.31.28-8.41.25-9.92.05-.92-.12-.65-.93-1.06-1.03-2.31-.55-6.96-.37-9.3-1-.21-.06-2.43-2.1-3.27-2.44-1.22-.5-4.71-1.01-4.98-1.17s-.29-1.18-.8-1.25c-.42-.06-1.22.56-1.98.33-.65-.2-.62-1.34-1.16-1.48-1.06-.27-2.66.27-3.81,0-.37-.09-.27-.86-.7-.97-.54-.14-1.35.15-1.77-.03-2.78-1.19-12.2-9.48-14.69-12.62-.29-.37-.03-1.26-.32-1.68-.31-.45-2.11-1.54-2.24-1.79-.69-1.27-1.48-5.29-2.27-7.2-.9-2.18-.38-2.86-.91-4.35-.24-.68-1.3-.61-1.43-1.16-1.02-4.24-2.11-8.32-2.98-11.97-.42-1.75.35-4.54-.02-6.39-.21-1.08-1.17-1.39-1.39-2.1-.52-1.72-.48-5.52-1.13-7.77-.14-.49-3.2-2.63-3.38-3.19-.35-1.09.03-2.52-.09-3.68-.21-.21-3.64.24-4.67-.09-.27-.09-3.87-3.71-4.02-3.95-1.37-2.06-1.76-4.91-2.31-7.1-.1-.41-.88-.33-.97-.7-.83-3.46.44-7.78.96-10.92s.33-7.9,1.04-10.87c.1-.41.91-.14,1.03-1.06.45-3.44-.39-7.92-.07-11.5l1.48-.3.05-2.47c.53-.55,12.99.35,15.27.03.92-.13,3.31-.78,4.37-1.04.23-.06.96-1.8,2.85-.98-.51-2.65.71-8.5-.07-10.68-.24-.67-1.17-.66-1.35-.92-.2-.29.44-.96-.02-1.66-.1-.15-2.4-2.37-2.56-2.45-.76-.39-3.84-.48-4.65-.28-.55.14-.34,1.29-1.58,1.52-1.02.19-4.92.17-6.03.03s-.8-1.22-1.54-1.48c-.97-.33-4.47.98-3.65-1.03.05-.13,2-1.78,2.13-1.85.23-.14,3.01-1.53,3.19-1.58,2.76-.87,13.16-1.97,15.99-.93Z"/>
    <path class="cls-1" d="M131.04,91.39s-.19-.88.32-1.01c1.8.04,2.92.41,3.98-1.2.25-.38.12-1.11.24-1.21.32-.27,1.51.07,2.33-.23.3-.11,4.3-4.24,4.48-4.5.43-.63,1.18-3.44,1.78-4.45.45-.76,1.66-1.28,1.7-1.6.06-.48-.54-1.23-.31-1.97.18-.59,1.15-.64,1.32-.96.3-.57,2.07-4.45,2.13-4.71.45-1.92.33-15.54,0-17.85-.11-.75-.82-1.29-.95-2.05-.46-2.79.38-4.93-1.14-7.59-.1-.18-3.58-2.61.36-2.63,1.36,0,.51,1.26.91,2.39.09.26,3.34,2.62,4.07,3.66.28.39.14,1.14.33,1.55.21.46.85.43.93.75.27,1.17-.26,2.73,0,3.8.14.55,1.29.34,1.52,1.58.52,2.76,0,8.81.01,12.03.02,3.83.7,1.97.99,3.07.54,2.04-.36,6.48-.05,8.92.12.96.96.48,1.08,1.43.59,4.68-1.02,12.82-.03,16.92.09.37.87.29.97.69.2.8-.15,1.67.27,2.64s2,1.33,2.14,1.6c.29.55-.03,1.46.25,2.27.12.34,4.37,3.9,5.33,3.14-.91,2.91,1.66,2.57,2.27,3.98.47,1.09.64,3.67,1.4,4.84,1.39,2.13,4.49,2.69,5.16,3.82.34.59.2,1.42.65,2.11.5.76,1.94,1.08,2.05,1.56.18.82-.17,1.87,0,2.79.12.62,2.58,1.35,2,2.56-1.24,1.13-1.63,3.31-2.16,4.16-.21.34-1.13.36-1.22.84-.19,1.07,1.07,4.26.12,5.79s-1.31-.31-1.4-.35c-1.01-.45-3.32-1.25-4.19-1.84-.44-.29-1.15-1.73-1.52-1.8-5.12-.98-7.24-3.04-12.52-5.37-1.17-.52-3.38-1-4.7-1.68-2.6-1.34-2.26-.44-4.56-.97-.4-.09-.13-.91-1.06-1.03-2.44-.32-6.88.6-8.93.05-.57-.15-.52-1.28-1.05-1.38-.82-.14-2.91.85-4.48.28-.63-.22-.63-1.11-.94-1.3-.11-.07-2.09-1.08-2.22-1.11-1.33-.32-4.21.44-5.18-.23-.52-.39-.43-.96-.49-1.51-.66-5.44-.64-21.55,0-27.02.09-.73.06-1.28.77-1.72,1.13,0,6.94.2,7.24,0Z"/>
    <path class="cls-1" d="M196.49,161.3c-.91-.09-2.04.27-2.88-.13-.38-.18-5.73-5.66-5.97-6.01-.27-.4-.02-1.11-.18-1.44-1.28-2.64-1.26-2.64-1.94-5.56-.13-.57-1.3-.51-1.38-1.05-.06-.4.51-1.13.3-1.92-.13-.47-2.42-3.66-2.47-4.08-.56-4.27.98-5.13,3.79-7.77l.67.09c.45,1.92,4.38.47,6.23.92.37.09.29.87.69.97,3.85.94,2.03.67,4.69,2.24,2.09,1.23,5.02,2.8,7.04,3.83.65.33.7,1.47,2.41.94l.47,3.28,3.03.22c-.58,1.66.72,1.87.94,2.41,1.84,4.43,2.71,9.14,4.81,12.55.25.41-.38,1.11-.18,1.42,1.1,1.74.72.05,1.44,3.26.09.42.91.13,1.03,1.06.52,3.97.52,18.07,0,22.04-.12.92-.93.65-1.03,1.06-.43,1.84.5,5.17-.09,6.84-.24.68-1.3.64-1.44,1.16-.33,1.23.48,2.85.37,3.44-.09.48-1.04.49-1.24.83-.52.86-4.48,9.61-4.61,10.2-.22.99.22,2-.16,3.04-.05.14-2.06,2.07-2.21,2.1-1.93.39-5.35-1.08-5.64,1.52h-.48c.06-1.83-1.67-1.19-2.35-1.67-1.33-.95-5.31-7.13-6.38-8.85-.51-.81-1.39-3.43-1.94-4.3-.28-.44-1.71-1.12-1.8-1.52-.79-3.68,1.64-7.07,5.47-6.13-.25-1.67.36-4.13-.01-5.65-.08-.34-.71-.25-.97-.74-.19-.36.16-1.33-.06-1.57-.1-.11-1.46,0-2.25-.5-.61-.39-.89-1.33-1.38-1.87-1.11-1.23-4.28-4.54-5.17-5.81-.3-.43,0-1.27-.28-1.72-1.37-2.2-.37-.62-.94-2.76-.28-1.03-2.03-1.23-1.35-3.5.21-.69,3.44-5.27,3.76-5.36.57-.16,2.77-.11,3.34.08.67.23.63,1.3,1.16,1.43,1.31.34,3.65-.26,5.15-.01v-6.99Z"/>
    <path class="cls-1" d="M102.48,7.1c.19.12.21,1.1.89,1.32,2.5.78,6.79,1.82,9.06,3.18.64.39.35,2.26,2.62.88l.03,1.45c.32.32,3.18-.16,4.13.06,2.19.51,5.14,1.39,7.49,2.08.7.21,1.07,1.17,1.71,1.34,2.07.56.51-.42,2.76.94,1.53.93,3.59.76,5.03,1.1.5.12.49,1.05.83,1.25,2.6,1.59,8.8,1.58,11.66,2.27.37.09.3.89.69.98,3.75.86,6.67,2.14,10.48,3.68,2.03.82,4.37,2.06,6.8,2.35l4.85,2.47c-1.28.18-2.96-.26-4.15.02-.4.09-.13.91-1.06,1.03-1.81.24-4.29-.38-6.05-.05-1.3.24-.81,1.42-1.96,1.55-.96.11-5.25.13-5.96-.12-.75-.26-.42-1.33-1.54-1.47-1.82-.22-16.54-.16-17.26.31-.35.23-.33,1.11-.84,1.24-4.69,1.23-15.76-.76-21.42-.05-.96.12-.48.96-1.43,1.08-8.54,1.08-34.32.94-43.03,0-1.48-.16-2.11-.74-3.44-1.06l-31.25.02c.27-1.17,1.6-.74,2.33-1.17.39-.23.93-1.4,1.33-1.63.57-.33,5.36-2.1,5.67-2.17,3.13-.72,6.11-1.7,9.3-2.61.47-.13,5.32-3.22,5.66-3.33,2.8-.9,6.09-1.23,8.88-2.13.73-.24.68-1.23.87-1.37.12-.09,1.58.75,2.63.39.61-.21.63-1.14.94-1.32.12-.07,2.09-1.07,2.22-1.11.96-.23,3.78.26,4.12-.07l.03-1.45c3.03,1.44,2.71-.37,3.91-.97,1.49-.75,3.39-.71,4.73-1.05.24-.06.92-1.73,2.83-1.02l.02-1.46c2.83,1.79,2.97-.63,3.81-.91,1.47-.48,4.31-.69,5.8-1.11.2-.06,2.65-1.81,3.36-2.24.48-.3.53-2.01,1.93-1.11Z"/>
    <path class="cls-1" d="M139.04,39.45c.18,1.28-.27,2.95.02,4.14.23.95,2.98,3.69,3.34,5.74.34,1.92-.22,4.23.15,5.76.16.68.63,1.82,1,3.5.08.37.89.3.98.68.14.56-.79,5.12-1.02,5.79-.13.39-.73.33-.92.77-1.23,2.92-3.39,8.35-5.01,10.87-.46.71-2.41,1.62-2.85,2.38-.37.64-.66,2.89-1.29,3.22-.59.3-1.44-.05-2.01.13-.52.16-1.52,2.03-1.88,2.2-1.03.49-1.8.1-2.65.29-.33.07-.54,1.93-3.33.72-2.07-.89-1.2-3.01-1.53-4.46-1.16-5.12-1.66-9.74-3.66-14.59-1.03-2.5-1.62-3.88-3.06-6.14-.25-.4.35-1.05.16-1.4-.32-.58-8.79-9.05-9.38-9.35-.52-.26-1.37.39-2.16.17-.9-.24-5.34-3.38-6.07-3.47-3.88-.49-17.19-.5-21.05,0-.21.03-2.79.81-3.88,1.05-.36.08-.3.88-.69.98-1.68.43-3.03-.17-2.03-1.88.14-.24,1.08-.26,1.3-.91.25-.74-.07-2.55.08-2.69s1.14.16,1.61-.02c.51-.19.2-.9,1.1-1.02,11.69-1.57,27.17,1.5,39.02.08,1.15-.14.66-1.31,1.96-1.55,6.04-1.12,15.58.83,22.04.06,1.19-.14.25-1.46,1.71-1.04ZM115.56,46.44v9.99s.7-.14.88.09c.37.48-.06,1.47.15,2.02.79,2.12,3.65,1.06,5.13,1.39.4.09.13.91,1.06,1.03,4.87.64,11.68.41,14.31-4.27l-.51-11.53-4.03-.22-.05,2.47-1.48.3c-.1,2.68.9,4.71-1.53,6.38-2.61,1.79-1.96.64-3.7.37-.95-.15-3.01.31-3.52-.49-.44-.83-.03-1.87-.23-2.69-.09-.39-.89-.32-.98-.69-.21-.88.2-3.95,0-4.15h-5.5Z"/>
    <path class="cls-1" d="M207.98,277.16c1.11.66,2.21,2.62,3.16,3.32.5.37,1.49.15,2.39.88,1.83,1.48,1.15,1.68,4.24,2.76,2.68.94,6.52.96,8.71,2.31,3.11,1.93,7.68,2.91,10.77,5.18s2.49,1.52,5.89,2.6c.71.23.76,2.18,2.8,1.43.4,2.37-.04,6.1-2.5,7.24-1.36.63-2.89-.03-4.15.26-.84.19-4.1,1.49-5.63,1.96-2.68.82-4.22,1.71-6.9,2.55-3.29,1.03-7.92,1.49-11.51,1.99-2.18.31-5-.27-7.27-.03v-32.46Z"/>
    <path class="cls-1" d="M72.46,63.58c.16.07-.05.76.85.88,3.67.47,10.49-.87,13.64.12.09.03,1.2,1.25,1.19,1.58-.5,4.24-3.2,1.65-5.27,3.79-17.32-1.71-38.69,2.13-55.52,0-.96-.12-.48-.96-1.43-1.08-1.93-.24-12.26.42-12.77.04-.27-1.98,3.79-.64,5.14-.98.54-.14.51-1.26,1.16-1.47.97-.31,2.11.65,2.88.43.64-.19.58-1.33,1.15-1.47,4.95-1.27,16.07.86,21.91.04,6.34-.89,11.8-.27,17.49-.99.96-.12.48-.96,1.43-1.08,1.11-.14,7.45-.11,8.14.2Z"/>
    <path class="cls-1" d="M179.41,209.86c.28.18.29,1.16.8,1.25l4.79-.36c.34.34-.35,7.32-.01,8.64.14.55,1.29.34,1.52,1.58.22,1.14.09,10.19-.28,10.76-.23.35-1.11.33-1.25.84-.61,2.31.47,7.01,0,9.64-2.29-.85-2.28-3.85-3.16-5.33-1.17-1.98-4.37-5.1-5.7-7.29-1.49-2.45-1.85-6.64-3.15-9.44-.32-.7-1.26-.66-1.33-1.12s.56-1.22.33-1.98c-.2-.65-1.34-.62-1.48-1.16-.21-.81-.16-4.48.5-4.92,1.44.32,2.05-1.18,2.73-1.27.77-.1,5.32-.07,5.68.15Z"/>
    <path d="M115.56,46.44h5.5c.21.2-.2,3.27,0,4.15.09.37.88.3.98.69.19.82-.21,1.85.23,2.69.51.8,2.56.34,3.52.49,1.73.27,1.08,1.43,3.7-.37,2.43-1.66,1.43-3.7,1.53-6.38l1.48-.3.05-2.47,4.03.22.51,11.53c-2.64,4.68-9.44,4.91-14.31,4.27-.93-.12-.66-.94-1.06-1.03-1.48-.34-4.33.72-5.13-1.39-.21-.55.23-1.54-.15-2.02-.18-.23-.88-.05-.88-.09v-9.99Z"/>
    <path d="M218.24,274.72l-3.74-1.08c.3-3.06-.58-1.43-1.89-2.1-.32-.16-2.5-3.11-2.77-3.22-1.33-.58-2.65.62-1.85-2.8.09-.39,1.16-.3,1.03-1.06l.03-39.42.75-.75,3.55-.23c1.32-1.15,1.61-3.38,2.41-4.81,1.39-2.49,2.08-5.16,3.5-7.98,2.26-4.49,2.22-5.55,3.22-10.18.08-.36.89-.3.98-.68.39-1.61-.43-4.33.09-5.84.26-.75,1.33-.42,1.47-1.54.54-4.35.71-26.67-.05-30.48-.22-1.12-1.25-1.44-1.43-2.12-.21-.79.44-1.64.17-2.16-.14-.28-2.14-1.43-2.21-1.84-.54-2.86-.11-3.18-1.3-6.08-.68-1.66-4.59-8.38-4.72-8.9-.35-1.39-.19-4.74-1.92-5.19l-.07-.93c1.65-.11,2.49-2.56,3.65-3.34.54-.37,3.72-1.29,4.24-2.26.31-.58-.05-1.41.12-2.04.11-.42.89-.33.98-.7.38-1.57.31-13.93.05-15.92-.12-.92-.93-.65-1.03-1.06-.33-1.39.31-3.43-.02-4.81-.09-.37-.89-.3-.98-.69-.34-1.48.69-2.67-1.51-3.4,1.91-.32,1.62-3.6,2.62-4.14.53-.28,1.48.08,1.8-.18.24-.21,0-1.28.57-1.69.43-.32,1.34-.09,1.85-.42,1.72-1.12,1.88-5.04,4.65-4.32-.72-2.69,1.03-2.45,1.85-3.64.69-.99,2.13-4.15,2.82-5.18.23-.34,1.63-1.13,1.69-1.28.4-1.08-.08-2.11.14-3.03.12-.51,1.2-.47,1.44-1.15.43-1.23-.14-3.42.1-4.91,1.12-6.89,1.93-20.5,1.01-27.53-.12-.93-.95-.66-1.03-1.05-.2-.93.29-2.37-.11-3.06-.13-.22-1.49-.67-2.01-1.12-1.81-1.61-2.9-3.99-5.03-5.32-.46-.29-1.25.02-1.72-.27-.31-.19-.32-1.1-.93-1.3-.87-.29-2.02.12-2.92-.09-6.34-1.48-14.56-1.56-20.9.02-.52.13-.48,1-.88,1.22-4.13,2.3-6.21,2.73-9.58,5.8-1.18,1.08-1.32,2.29-3.32,2.06,0,1.38-.1,1.48-1.48,1.48.31,2.09-1.12,2.12-2.06,3.32-2.85,3.67-4.47,6.47-5.5,10.87-.21.9.2,2.03-.09,2.92-.22.67-1.3.63-1.44,1.15-.17.67-.11,8.77.09,9.33.4,1.15.75.06,1.43,3.45.05.26,2.81,3.51,2.97,4.2.72,3.07-.02,8.85-1.15,11.47-.91,2.1-2.12,4.58-3.13,6.67-.72,1.49-5.91,3.64-4.19,5.98l-1.45.02c.22,2.2-.13,2.57-2.04,3.47-.93-1.08-1.65-3.88-2.65-4.35-.58-.27-1.22-.06-1.82-.17l-.27-2.01c-2.98.02-1.64-1.05-2.43-2.3-.31-.5-1.3-.69-1.71-2.03-.24-.77.02-1.61-.15-2.27-.1-.41-.88-.33-.97-.7-.98-4.08.61-12.23.03-16.9-.14-1.12-1.21-.79-1.47-1.54-.6-1.75.25-5.81-.05-7.96-.84-5.98-.29-11.16-.99-16.49-.12-.92-.94-.66-1.03-1.06-.26-1.14.2-2.57-.04-3.79-.21-1.09-2.8-1.05-2.47-2.36,4.63.42,8.45-1.77,13.21-.97l.55-1.57,16.71.03v-6.99c-1.85.83-2.68-.95-2.84-.99-.72-.16-1.56.13-2.3-.02-.34-.07-1.76-2.27-1.95-2.36-.25-.12-.92.5-1.41.16-.37-.26-.3-1.24-.83-1.32-.46-.07-1.18.61-1.69.3-.4-.24-1.99-1.72-2.88-2.2-3.28-1.75-6.97-2.32-10.42-3.72-1.84-.75-2.48-.97-4.17-2.08-1.97-1.29-6.53-1.69-9.15-2.25-.37-.08-.3-.9-.68-.98-1.15-.27-2.73.31-3.85-.08-.68-.24-.61-1.29-1.17-1.43-4.27-1.04-7.52-2.12-11.29-2.98-.52-.12-.48-1.22-1.15-1.44-1.73-.57-5.95-.66-7.85-1.08-.37-.08-.31-.9-.68-.98-1.71-.37-3.47-.13-5.12-1.3-.53-.38-1.46-2.04-1.91-2.17-1.55-.44-5.17-1.95-5.47-2.01-.91-.2-1.99.19-2.8,0-.51-.12-.48-1.21-1.15-1.45-1.52-.53-3.61,1.36-3.69-1.06h-6c.4,3.68-.5,1.92-1.61,2.51-1.34.72-5.04,2.7-6.22,2.97-2.58.59-4.6,1.44-6.81,2.34-1.94.79-3.77,1.19-5.5,1.98-2.79,1.28-2.59,1.05-5.49,1.69-.37.08-.3.9-.68.98-3.51.76-3.12.22-6.57,1.94-4.2,2.1-5.01,1.58-9.23,2.57-.38.09-.31.9-.68.98-1.87.4-1.49-.02-3.33.82-4.95,2.27-8.19,3.28-13.96,4.68-.25.06-.98.96-3.5,1.52-1.43.32-3.92,3.43-4.2,3.49-1.81.4-1.56.11-3.31.82-2.17.88-2.73.77-4.98,1.18-.19.03-2.64,2.43-2.72,2.6-.56,1.16.12,3.94-.14,5.38,2.44-.91,2.52,1.29,3.73,1.51,12.47,2.23,29.61-1.2,40.52,1.96.65.19,1.52-.03,2.22.02.38.35-.26,8.69-.05,10.28.13.99,1.08.64,1.06.97-.04.86-1.78,2.56-1.02,4.24-.24.26-4.24-.26-5.15-.02-1.1.29.76.97-3.07.99-3.22.02-9.25-.51-12.01.03-1.16.23-1.34,1.3-2.98,1.52-5.9.8-16.23-1.26-21.42-.02-.38.09-.31.89-.69.98-2.85.68-9.28.34-11.8,1-.26.07-3.39,2.06-4.25,2.45-.5.23-1.19.09-1.87.52-1.54.97-1.67,4.56-.94,6.02.07.15,2.19,2.3,2.34,2.36.84.28,1.71,0,2.52.24.68.21,1.03,1.12,1.58,1.2,4.72.75,11.9-2.12,16.48,1.23l41.25-.03c-.47,3.01.64,7.92-.01,10.65-.09.38-.89.31-.98.69-.33,1.38.33,3.52,0,4.8-.14.52-1.2.48-1.43,1.16-.43,1.23.14,3.42-.1,4.91-.13.8-.84,1.38-1,2.5-.42,3.01-.41,13.99-.01,17.04.1.8,3.39,4.98,3.53,5.56.2.87-.14,1.88.03,2.8.08.44,2.33,1.66,2.48,2.35-1.49-.64-2.61,1.22-3.23,1.31-4.39.63-9.07,3.62-13.59,5.86-9.4,4.64-14.01,10.56-22.04,17.78-.51.46-1.89.91-2.01,1.13-.29.53.04,1.47-.25,2.27-.05.15-1.46.94-1.69,1.28-3.81,5.52-6.76,12.76-10.39,18.34-.38.58-3.06,8.03-3.24,8.81-.27,1.15.28,2.77,0,3.81-.29,1.1-.97-.77-.99,3.07-.06,10.17-1.51,21.77,2.93,30.66.96,1.93.7,2.93,1.09,4.25.15.52,2.22,1.72,2.3,1.95,1.17,3.25,1.42,3.33,3.85,5.65.55.52,2.72,2.99,2.92,3.06.8.29,1.74-.05,2.27.24.3.16.7,1.9,1.72,2.58,1.25.83,3.85,1.38,4.75,1.94.32.2.33,1.12.94,1.33,1.01.35,1.98-.39,2.48-.32.52.08.49,1.25,1.05,1.38.86.21,2.09-.16,3.27.11,1.8.42,6.13,2.6,6.41,4.58.47,3.33-1.53,3.28-1.53,3.53v7.24c-1.45.54-1.85-.41-2.07-.73-.42,3.99-1.76,7.55-3.3,11.18.05-.11.09-.22.14-.32l4.23,2.36c.3,1.51-.84,2.34-1.03,3.72-.34,2.44-.31,11.05.06,13.48.14.95,1.33,3.52,2.18,4.09.37.25,1.11.12,1.21.24.27.32-.07,1.51.23,2.32.16.44,5.56,4.8,6.19,5.77.25.38.07,1.11.33,1.69.11.25,1.2.02.84,1.4-.05.19-.91.19-1,.59-.69,2.99.23,7.66,1.01,10.63,1.88-.75,2.64.97,2.82,1.01,2.57.59,3.18,1.44,3.5,1.52,1.28.33,3.42-.33,4.8,0,17.56,4.23,38.09.37,57.02,3.01,6.05.84,14.55-.22,20.48-1.05,4.34-.61,10.16.62,14.55.07.96-.12.48-.96,1.43-1.08,8.04-1.01,18.4,1,26.54.08,1-.11.63-1.55,2.22-1.04.38,1.85-.5,11.74,0,12.48.03.04.66-.14.87.12.28.36.02,1.18.3,1.71.85,1.6,2.38.87,3.52,1.23.68.22.63,1.3,1.16,1.44.51.13,7.9.15,8.36.02.5-.14.09-1.04.61-1.56,1.9-1.93,1.81-.46,3.14-4.27.7-2,1.57-5.09,2.02-7.03.34-1.43-.57-5.74.47-6.43,1.81.52,3.26-1.19,3.75-1.25,2.57-.34,5.98.41,8.56.08.96-.12.48-.96,1.43-1.08,1.95-.25,5.26.48,6.93.05.53-.14.48-1.22,1.15-1.44.89-.29,2.02.12,2.92-.09,2.67-.62,6.07-2.48,8.11-2.96.95-.23,3.8.27,4.12-.07l.06-1.39c.29-.3,2.29.13,3.12-.07.13-.03,2.08-1.07,2.19-1.15.14-.09,2.3-2.2,2.37-2.34.5-1,.5-12.96,0-13.96-1.06-1.35-1.83-1.19-3.05-1.68-.17-.07-.18-.74-.51-.82-.83-.2-2.8.24-3.11-.08l-.11-1.33c-2.01.4-2.85-1.54-3.58-1.95-2.97-1.65-7.31-3.57-10.25-4.58-1.67-.57-3.29-1.32-5.09-1.06l-7.72-4.94ZM157.06,78.62c.59,4.68-1.02,12.82-.03,16.92.09.37.87.29.97.69.2.8-.15,1.67.27,2.64.41.94,2,1.33,2.14,1.6.29.55-.03,1.46.25,2.27.12.34,4.37,3.9,5.33,3.14-.91,2.91,1.66,2.57,2.27,3.98.47,1.09.64,3.67,1.4,4.84,1.39,2.13,4.49,2.69,5.16,3.82.34.59.2,1.42.65,2.11.5.76,1.94,1.08,2.05,1.56.18.82-.17,1.87,0,2.79.12.62,2.58,1.35,2,2.56-1.24,1.13-1.63,3.31-2.16,4.16-.21.34-1.13.36-1.22.84-.19,1.07,1.07,4.26.12,5.79-.98,1.58-1.31-.31-1.4-.35-1.01-.45-3.32-1.25-4.19-1.84-.44-.29-1.15-1.73-1.52-1.8-5.12-.98-7.24-3.04-12.52-5.37-1.17-.52-3.38-1-4.7-1.68-2.6-1.34-2.26-.44-4.56-.97-.4-.09-.13-.91-1.06-1.03-2.44-.32-6.88.6-8.93.05-.57-.15-.52-1.28-1.05-1.38-.82-.14-2.91.85-4.48.28-.63-.22-.63-1.11-.94-1.3-.11-.07-2.09-1.08-2.22-1.11-1.33-.32-4.21.44-5.18-.23-.52-.39-.43-.96-.49-1.51-.66-5.44-.64-21.55,0-27.02.09-.73.06-1.28.77-1.72,1.13,0,6.94.2,7.24,0,.04-.03-.19-.88.32-1.01,1.8.04,2.92.41,3.98-1.2.25-.38.12-1.11.24-1.21.32-.27,1.51.07,2.33-.23.3-.11,4.3-4.24,4.48-4.5.43-.63,1.18-3.44,1.78-4.45.45-.76,1.66-1.28,1.7-1.6.06-.48-.54-1.23-.31-1.97.18-.59,1.15-.64,1.32-.96.3-.57,2.07-4.45,2.13-4.71.45-1.92.33-15.54,0-17.85-.11-.75-.82-1.29-.95-2.05-.46-2.79.38-4.93-1.14-7.59-.1-.18-3.58-2.61.36-2.63,1.36,0,.51,1.26.91,2.39.09.26,3.34,2.62,4.07,3.66.28.39.14,1.14.33,1.55.21.46.85.43.93.75.27,1.17-.26,2.73,0,3.8.14.55,1.29.34,1.52,1.58.52,2.76,0,8.81.01,12.03.02,3.83.7,1.97.99,3.07.54,2.04-.36,6.48-.05,8.92.12.96.96.48,1.08,1.43ZM122.03,81.18c-1.16-5.12-1.66-9.74-3.66-14.59-1.03-2.5-1.62-3.88-3.06-6.14-.25-.4.35-1.05.16-1.4-.32-.58-8.79-9.05-9.38-9.35-.52-.26-1.37.39-2.16.17-.9-.24-5.34-3.38-6.07-3.47-3.88-.49-17.19-.5-21.05,0-.21.03-2.79.81-3.88,1.05-.36.08-.3.88-.69.98-1.68.43-3.03-.17-2.03-1.88.14-.24,1.08-.26,1.3-.91.25-.74-.07-2.55.08-2.69.15-.13,1.14.16,1.61-.02.51-.19.2-.9,1.1-1.02,11.69-1.57,27.17,1.5,39.02.08,1.15-.14.66-1.31,1.96-1.55,6.04-1.12,15.58.83,22.04.06,1.19-.14.25-1.46,1.71-1.04.18,1.28-.27,2.95.02,4.14.23.95,2.98,3.69,3.34,5.74.34,1.92-.22,4.22.15,5.76.16.68.63,1.82,1,3.5.08.37.89.3.98.68.14.56-.79,5.12-1.02,5.79-.13.39-.73.33-.92.77-1.23,2.92-3.39,8.35-5.01,10.87-.46.71-2.41,1.62-2.85,2.38-.37.64-.66,2.89-1.29,3.22-.59.3-1.44-.05-2.01.13-.52.16-1.52,2.03-1.88,2.2-1.03.49-1.8.1-2.65.29-.33.07-.54,1.93-3.33.72-2.07-.89-1.2-3.01-1.53-4.46ZM63.37,34.93l-31.25.02c.27-1.17,1.6-.74,2.33-1.17.39-.23.93-1.4,1.33-1.63.57-.33,5.36-2.1,5.67-2.17,3.13-.72,6.11-1.7,9.3-2.61.47-.13,5.32-3.22,5.66-3.33,2.8-.9,6.09-1.23,8.88-2.13.73-.24.68-1.23.87-1.37.12-.09,1.58.75,2.63.39.61-.21.63-1.14.94-1.32.12-.07,2.09-1.07,2.22-1.11.96-.23,3.78.26,4.12-.07l.03-1.45c3.03,1.44,2.71-.37,3.91-.97,1.49-.75,3.39-.71,4.73-1.05.24-.06.92-1.73,2.83-1.02l.02-1.46c2.83,1.79,2.97-.63,3.81-.91,1.47-.48,4.31-.69,5.8-1.11.2-.06,2.65-1.81,3.36-2.24.48-.3.53-2.01,1.93-1.11.19.12.21,1.1.89,1.32,2.5.78,6.79,1.82,9.06,3.18.64.39.35,2.26,2.62.88l.03,1.45c.32.32,3.18-.16,4.13.06,2.19.51,5.14,1.39,7.49,2.08.7.21,1.07,1.17,1.71,1.34,2.07.56.51-.42,2.76.94,1.53.93,3.59.76,5.03,1.1.5.12.49,1.05.83,1.25,2.6,1.59,8.8,1.58,11.66,2.27.37.09.3.89.69.98,3.75.86,6.67,2.14,10.48,3.68,2.03.82,4.37,2.06,6.8,2.35l4.85,2.47c-1.28.18-2.96-.26-4.15.02-.4.09-.13.91-1.06,1.03-1.81.24-4.29-.38-6.05-.05-1.3.24-.81,1.42-1.96,1.55-.96.11-5.25.13-5.96-.12-.75-.26-.42-1.33-1.54-1.47-1.82-.22-16.54-.16-17.26.31-.35.22-.33,1.11-.84,1.24-4.69,1.23-15.76-.76-21.42-.05-.96.12-.48.96-1.43,1.08-8.54,1.08-34.32.94-43.03,0-1.48-.16-2.11-.74-3.44-1.06ZM27.34,69.95c-.96-.12-.48-.96-1.43-1.08-1.93-.24-12.26.42-12.77.04-.27-1.98,3.79-.64,5.14-.98.54-.14.51-1.26,1.16-1.47.97-.31,2.11.65,2.88.43.64-.19.58-1.33,1.15-1.47,4.95-1.27,16.07.86,21.91.04,6.34-.89,11.8-.27,17.49-.99.96-.12.48-.96,1.43-1.08,1.11-.14,7.45-.11,8.14.2.16.07-.05.76.85.88,3.67.47,10.49-.87,13.64.12.09.03,1.2,1.25,1.19,1.58-.5,4.24-3.2,1.65-5.27,3.79-17.32-1.71-38.69,2.13-55.52,0ZM68.07,101.6c.52-3.15.33-7.9,1.04-10.87.1-.41.91-.14,1.03-1.06.45-3.44-.39-7.92-.07-11.5l1.48-.3.05-2.47c.53-.55,12.99.35,15.27.03.92-.13,3.31-.78,4.37-1.04.23-.06.96-1.8,2.85-.98-.51-2.65.71-8.5-.07-10.68-.24-.67-1.17-.66-1.35-.92-.2-.29.44-.96-.02-1.66-.1-.15-2.4-2.37-2.56-2.45-.76-.39-3.84-.48-4.65-.28-.55.14-.34,1.29-1.58,1.52-1.02.19-4.92.17-6.03.03-1.12-.14-.8-1.22-1.54-1.48-.97-.33-4.47.98-3.65-1.03.05-.13,2.01-1.78,2.13-1.85.23-.14,3.01-1.53,3.19-1.58,2.76-.87,13.16-1.97,15.99-.93,2.21.82,1.83,1.58,5.28,2.35,1.66.37,9.38,7.46,10.31,9.38.18.38-.14,1.26.11,1.53l1.37.08c.27.28-.09,1.48.07,2.12.18.73,2.87,5.74,2.97,6.19.38,1.63-.38,4.28,0,5.79.14.53,1.2.49,1.44,1.16.39,1.12-.18,2.7.08,3.85.09.38.9.31.98.68,3.03,13.89,0,30.34,2.03,44.83.28,1.98-.47,5.21-.04,6.92.14.55,1.29.34,1.52,1.58.33,1.73-.28,4.11.01,5.98.53,3.4,1.73,11.26,3.12,14.11.14.29,1.08.34,1.27.95.25.76-.07,1.65.22,2.56.06.17,1.75,1.09,1.83,1.49.18.9-.18,3.91.04,4.11.15.14,1.14-.09,1.63.11.72.3.68,1.1.98,1.28.46.29,1.29-.02,1.71.27,1.22.85,1.75,2.64,2.49,3.74,3.74,5.55,10.68,10.21,13.82,15.7.8,1.39,1.37,3.76,1.95,4.76.29.49,1.82.31,1.36,1.85-.04.12-1.7,1.73-1.83,1.76-1.31.28-8.41.25-9.92.05-.92-.12-.65-.93-1.06-1.03-2.31-.55-6.96-.37-9.3-1-.21-.06-2.43-2.1-3.27-2.44-1.22-.5-4.71-1.01-4.98-1.17-.28-.16-.29-1.18-.8-1.25-.42-.06-1.22.56-1.98.33-.65-.2-.62-1.34-1.16-1.48-1.06-.27-2.66.27-3.81,0-.37-.09-.27-.86-.7-.97-.54-.14-1.35.15-1.77-.03-2.78-1.19-12.2-9.48-14.69-12.62-.29-.37-.03-1.26-.32-1.68-.31-.45-2.11-1.54-2.24-1.79-.69-1.27-1.48-5.29-2.27-7.2-.9-2.18-.38-2.86-.91-4.35-.24-.68-1.3-.61-1.43-1.16-1.02-4.24-2.11-8.32-2.98-11.97-.42-1.75.35-4.54-.02-6.39-.21-1.08-1.17-1.39-1.39-2.1-.52-1.72-.48-5.52-1.13-7.77-.14-.49-3.2-2.63-3.38-3.19-.35-1.09.03-2.52-.09-3.68-.21-.21-3.64.24-4.67-.09-.27-.09-3.87-3.71-4.02-3.95-1.37-2.06-1.76-4.91-2.31-7.1-.1-.41-.88-.33-.97-.7-.83-3.46.44-7.78.96-10.92ZM186.43,311.3c-1.12,1.62-3.8.49-5.56.84-.41.08-1.66,2.25-2.07,2.31-.39.06-1.31-.37-2.01-.36-6.71.12-16.33-.85-22.54,0-1.64.22-1.82,1.29-2.98,1.52-2.16.42-5.27-.33-7.51-.02-7.25,1.02-19.13,1.99-26.49,1.06-.96-.12-.48-.96-1.43-1.08-12.12-1.53-27.87,1.58-40.02.08-1.12-.14-.79-1.21-1.54-1.47-1.73-.59-4.47.46-5.48.29-.53-.09-.48-1.22-1.06-1.38-1.26-.34-3.43.34-4.8,0-.37-.09-.28-.87-.7-.98-.62-.16-1.45.19-2.04-.12-.15-.08-1.98-2.47-1.98-2.63,0-.16.83-.98.91-1.98.23-2.66-.2-5.69-.05-8.4-.08-.37-5.21-4.64-5.33-4.98-.29-.8.05-1.71-.25-2.27-.13-.23-4.07-2.74-4.24-3.22-.26-.75,0-1.42-.16-2.01-.12-.46-.9-.16-1.02-1.08-.12-.94-.14-4.62.05-5.43,1.3-5.51.29-8.86.95-14.11.12-.96.96-.48,1.08-1.43.29-2.29-.52-5.85-.03-7.93.09-.4.91-.13,1.03-1.06.25-1.95-.49-5.25-.05-6.93.14-.52,1.2-.48,1.44-1.16.58-1.67-.35-5.01.09-6.84.06-.27,1.98-4.2,2.03-4.55.47-3.62-.54-8.42-.08-12.05.12-.96.96-.48,1.08-1.43.24-1.9-.25-4.3-.04-6.28l-5.48.02c.67,1.87-1.41,2.38-1.53,2.83-.81,3.04.78,9.57,0,12.79-.06.26-1.73,3.45-1.96,4.61-.2,1.02.06,2.18-.03,3.22-1.35.4-2.2-.75-3.27-.98-2.29-.49-5.16-.57-7.37-1.03-.35-.07-1.56-2.04-2.01-2.34-.44-.3-1.3-.01-1.69-.3-.97-.73-3.55-4.04-3.79-4.2-1.77-1.17-4.21-1.39-5.7-4.02-.86-1.51-.08-2.96-2.09-2.64.06-.98-.76-3.59-1.22-4.3-.27-.42-1.74-1.13-1.82-1.52-.5-2.63-.97-3.77-1.53-6.29-.09-.42-.91-.13-1.03-1.06-.39-2.93-.38-13.11,0-16.05.12-.92.94-.66,1.03-1.06.27-1.16-.27-2.75,0-3.81.14-.52,1.19-.45,1.43-1.16.9-2.71,1.15-5.39,2.25-8.01.1-.24,1.49-.75.88-2.64l1.4-.05c-.59-1.91.75-2.34.88-2.64.43-.97,2.07-5.98,2.29-6.24.17-.19.95.02,1.41-.42.78-.75.72-2.29,1.16-3,2.79-4.45,8.16-10.69,12.46-14.5.33-.29,1.34,0,1.69-.31,4.58-3.93,4.49-5.16,10.27-7.85,7.05-3.28,11.01-6.27,18.95-9.03.47-.16.26-.84,1.14-.98,1.45-.23,3.53,1.06,4.31,2.25.43.67.28,1.39.51,1.88.22.46.85.43.93.75.39,1.64-.35,4.17.03,5.8.1.4.91.13,1.03,1.06.25,1.95-.49,5.25-.05,6.93.14.52,1.21.48,1.44,1.15.47,1.39.72,5.19,1.08,6.85.08.37.89.3.98.68.84,3.57.18,5.77,2.18,9.14,1.43,2.42,2.1,7.34,3.47,9.35.2.29,2.97,2.27,3.22,2.77.29.6-.02,1.64.17,1.82.12.12,1.27-.02,1.94.32,1.39.7,5.6,6.66,7.19,7.52,1.07.58,3.08.81,4.17,1.34.18.09,2.79,2.27,3,2.32,3.16.74,6.06.57,9.5,2.16.33.15,2.74,2.22,2.95,2.29,2.63.87,5.54.53,7.84,1.07.41.1.13.91,1.06,1.03,1.68.22,4.49-.44,5.93-.05,1.1.29-.76.97,3.07.99,5.21.03,10.44.16,15.63-.14l2.12-3.19v-9.78c-1.5-.65-1.96-3.93-2.42-4.61-.48-.7-1.84-1.11-1.96-1.33-.29-.55.03-1.46-.25-2.27-.25-.72-9.72-8.7-11.05-10.65-.42-.61-1.13-3.33-1.44-3.8-.49-.75-3.14-2.56-3.24-2.75-.3-.55.01-1.68-.24-2.51-.75-2.54-1.89-1.46-2.72-2.02-.22-.15-.32-.7-.76-1.02-.45-.33-1.65-.71-1.78-.93-.4-.7.1-2.12-.11-3.05-.04-.18-1.93-2.52-1.97-2.69-.28-1.15.28-2.76,0-3.8-.15-.57-1.28-.52-1.38-1.05-.14-.82.84-2.9.28-4.48-.24-.68-1.3-.63-1.43-1.16-.49-1.89.34-5.72.05-7.92-.12-.92-.93-.66-1.03-1.06-.25-1.07.12-2.51,0-3.66,1.78-.66,1.86.93,2.71,1.04,4.3.55,6.72-.12,11.54.94,3.67.81,6.39.82,9.82,2.55,6.25,3.16,12.69,5.75,19.24,9.1.26.14.64,1.24,1.66,1.57,1.04.34,2.18.09,2.87.41.18.08,1.61,2.17,1.75,2.23.99.39,2.27-.26,3.1.62.13.14,1.13,3.17,1.33,3.61,1.02,2.32.93,4.9,2.07,6.76.16.27.89.31,1.09.66.47.82-.12,2.19,1.27,1.98-.14,1.31-1.75.51-2.02.72-.58.43-.29,1.54-.64,2.11-.26.43-1.72,1.12-1.8,1.52-.43,2.11-.37,14.02-.06,16.4.12.92.91.63,1.02,1.07.23.93.53,4.34,1.13,5.05.11.13,1.52,1.22,2.41,2.2,1.26,1.38,2.67,1.5,1.98,4.06-.15.54-1,.27-1,.33v9.99c-.56.56-13.44-.45-15.75-.01-1.24.23-1.03,1.38-1.58,1.52-.96.24-4.89-.27-5.15-.01.2,1.65-.42,4.03.26,5.49.3.64,1.4,1.01,1.65,1.85.31,1.08-.15,2.38.17,3.34.22.67,1.3.63,1.44,1.15.27,1.06-.27,2.65,0,3.8.27,1.14,2.24,5.93,2.93,7.24,2.06,3.92,3.43,7.77,6.23,11.92,1.45,2.14,1.92,2.84,2.97,4.82.68,1.27,3.67,6.08,4.96,6.7.84.4,1.97.03,2.88.13l-.05,41.72c.08,1.13,1.31.66,1.55,1.96.24,1.28.2,15.08-.08,15.93ZM185,242.21c-2.29-.85-2.28-3.85-3.16-5.33-1.17-1.98-4.37-5.1-5.7-7.29-1.49-2.45-1.85-6.64-3.15-9.44-.32-.7-1.26-.66-1.33-1.12-.06-.44.56-1.22.33-1.98-.2-.65-1.34-.62-1.48-1.16-.21-.81-.16-4.48.5-4.92,1.44.32,2.05-1.18,2.73-1.27.77-.1,5.32-.07,5.68.15.28.18.29,1.16.8,1.25l4.79-.36c.34.34-.35,7.32-.01,8.64.14.55,1.29.34,1.52,1.58.22,1.14.09,10.19-.28,10.76-.23.35-1.11.33-1.25.84-.61,2.31.47,7.01,0,9.64ZM202.98,218.73h-.48c.06-1.83-1.67-1.19-2.35-1.67-1.33-.95-5.31-7.13-6.38-8.85-.51-.81-1.39-3.43-1.94-4.3-.28-.44-1.71-1.12-1.8-1.52-.79-3.68,1.64-7.07,5.47-6.13-.25-1.67.36-4.13-.01-5.65-.08-.34-.71-.25-.97-.74-.19-.36.16-1.33-.06-1.57-.1-.11-1.46,0-2.25-.5-.61-.39-.89-1.33-1.38-1.87-1.11-1.23-4.28-4.54-5.17-5.81-.3-.43,0-1.27-.28-1.72-1.37-2.2-.37-.62-.94-2.76-.28-1.03-2.03-1.23-1.35-3.5.21-.69,3.44-5.27,3.76-5.36.57-.16,2.77-.11,3.34.08.67.23.63,1.3,1.16,1.43,1.31.34,3.65-.26,5.15-.01v-6.99c-.91-.09-2.04.27-2.88-.13-.38-.18-5.73-5.66-5.97-6.01-.27-.4-.02-1.11-.18-1.44-1.28-2.64-1.26-2.64-1.94-5.56-.13-.57-1.3-.51-1.38-1.05-.06-.4.51-1.13.3-1.92-.13-.47-2.42-3.66-2.47-4.08-.56-4.27.98-5.13,3.79-7.77l.67.09c.45,1.92,4.38.47,6.23.92.37.09.29.87.69.97,3.85.94,2.03.67,4.69,2.24,2.09,1.23,5.02,2.8,7.04,3.83.65.33.7,1.47,2.41.94l.47,3.28,3.03.22c-.58,1.66.72,1.87.94,2.41,1.84,4.43,2.71,9.14,4.81,12.55.25.41-.38,1.11-.18,1.42,1.1,1.74.72.05,1.44,3.26.09.42.91.13,1.03,1.06.52,3.97.52,18.07,0,22.04-.12.92-.93.65-1.03,1.06-.43,1.84.5,5.17-.09,6.84-.24.68-1.3.64-1.44,1.16-.33,1.23.48,2.85.37,3.44-.09.48-1.04.49-1.24.83-.52.86-4.48,9.61-4.61,10.2-.22.99.22,2-.16,3.04-.05.14-2.06,2.07-2.21,2.1-1.93.39-5.35-1.08-5.64,1.52ZM226.49,286.43c3.11,1.93,7.68,2.91,10.77,5.18,3.03,2.23,2.49,1.52,5.89,2.6.71.23.76,2.18,2.8,1.43.4,2.37-.04,6.1-2.5,7.24-1.36.63-2.89-.03-4.15.26-.84.19-4.1,1.49-5.63,1.96-2.68.82-4.22,1.71-6.9,2.55-3.29,1.03-7.92,1.49-11.51,1.99-2.18.31-5-.27-7.27-.03v-32.46c1.11.66,2.21,2.62,3.16,3.32.5.37,1.49.15,2.39.88,1.83,1.48,1.15,1.68,4.24,2.76,2.68.94,6.52.96,8.71,2.31Z"/>
  </g>
</svg>